<svg xmlns="http://www.w3.org/2000/svg" xmlns:xlink="http://www.w3.org/1999/xlink" width="800" zoomAndPan="magnify" viewBox="0 0 600 449.999984" height="600" preserveAspectRatio="xMidYMid meet" version="1.0"><rect x="-60" width="720" fill="#ffffff" y="-44.999998" height="539.99998" fill-opacity="1"/><rect x="-60" width="720" fill="#ffffff" y="-44.999998" height="539.99998" fill-opacity="1"/><rect x="-60" width="720" fill="#ffffff" y="-44.999998" height="539.99998" fill-opacity="1"/><path fill="#ffffff" d="M 259.019531 139.675781 L 259.019531 409.089844 C 259.019531 431.703125 277.324219 450 299.90625 450 C 322.492188 450 340.792969 431.703125 340.792969 409.089844 L 340.792969 139.675781 L 401.085938 200 C 409.078125 207.988281 419.527344 211.984375 429.992188 211.984375 C 440.457031 211.984375 450.921875 207.988281 458.902344 200 C 474.867188 184.03125 474.867188 158.125 458.902344 142.15625 L 328.855469 12.015625 C 326.9375 10.109375 324.84375 8.398438 322.585938 6.894531 C 321.550781 6.195312 320.394531 5.703125 319.300781 5.105469 C 318.066406 4.441406 316.882812 3.675781 315.558594 3.140625 C 314.167969 2.558594 312.703125 2.21875 311.269531 1.800781 C 310.152344 1.480469 309.082031 1.039062 307.921875 0.808594 C 305.273438 0.28125 302.605469 0 299.90625 0 C 297.207031 0 294.535156 0.28125 291.890625 0.816406 C 290.730469 1.046875 289.667969 1.480469 288.546875 1.804688 C 287.109375 2.226562 285.648438 2.566406 284.253906 3.144531 C 282.933594 3.679688 281.75 4.441406 280.511719 5.109375 C 279.414062 5.714844 278.277344 6.199219 277.226562 6.898438 C 274.972656 8.40625 272.875 10.113281 270.972656 12.019531 L 140.910156 142.15625 C 124.933594 158.125 124.933594 184.03125 140.910156 200 C 148.898438 207.988281 159.355469 211.984375 169.820312 211.984375 C 180.285156 211.984375 190.753906 207.988281 198.730469 200 Z M 259.019531 139.675781 " fill-opacity="1" fill-rule="nonzero"/></svg>